<svg width="133" height="25" viewBox="0 0 133 25" fill="none" xmlns="http://www.w3.org/2000/svg">
<rect width="133" height="25" fill="#F5F5F5"/>
<g clip-path="url(#clip0_0_1)">
<rect width="1440" height="11467" transform="translate(-39 -27)" fill="white"/>
<g filter="url(#filter0_d_0_1)">
<rect width="1440" height="79" transform="translate(-39 -27)" fill="white"/>
<g clip-path="url(#clip1_0_1)">
<path d="M9.27093 20.6608C6.72033 23.1839 2.40058 23.1738 1.19419 19.8111C0.957996 19.1527 0.76915 18.4758 0.630255 17.7851C0.0631474 14.9647 0.354208 12.0415 1.46663 9.38477C2.57905 6.72816 4.46287 4.45749 6.87986 2.85992C9.2969 1.26236 12.1385 0.409668 15.0454 0.409668C17.9523 0.409668 20.7939 1.26236 23.2109 2.85992C25.6279 4.45749 27.5117 6.72816 28.6241 9.38485C29.7366 12.0415 30.0276 14.9647 29.4605 17.7851C29.3216 18.4758 29.1328 19.1527 28.8965 19.8111C27.6901 23.1738 23.3704 23.1839 20.8198 20.6608L16.8826 16.766C16.5064 16.3939 16.5453 15.7802 16.6491 15.2642C16.7121 14.9504 16.6797 14.6252 16.556 14.3297C16.4322 14.0341 16.2227 13.7815 15.9538 13.6038C15.6849 13.4261 15.3688 13.3312 15.0454 13.3312C14.722 13.3312 14.4059 13.4261 14.137 13.6038C13.8681 13.7815 13.6585 14.0341 13.5348 14.3297C13.411 14.6252 13.3786 14.9504 13.4418 15.2642C13.5455 15.7802 13.5843 16.3939 13.2082 16.766L9.27093 20.6608Z" fill="url(#paint0_linear_0_1)"/>
</g>
</g>
<path d="M39.304 24.16C38.712 24.16 38.104 23.976 37.48 23.608C36.872 23.24 36.248 22.64 35.608 21.808C35.112 21.152 34.752 20.4 34.528 19.552C34.32 18.704 34.216 17.864 34.216 17.032C34.216 16.632 34.24 16.24 34.288 15.856C34.352 15.424 34.472 14.936 34.648 14.392C34.824 13.832 35.008 13.376 35.2 13.024C35.264 12.896 35.352 12.768 35.464 12.64C35.592 12.512 35.672 12.448 35.704 12.448C35.72 12.448 35.728 12.464 35.728 12.496C35.728 12.56 35.648 12.752 35.488 13.072C35.248 13.552 35.072 14.064 34.96 14.608C34.848 15.136 34.792 15.68 34.792 16.24C34.792 17.264 34.952 18.272 35.272 19.264C35.608 20.272 36.048 21.136 36.592 21.856C37.104 22.544 37.6 23.04 38.08 23.344C38.576 23.648 39.04 23.8 39.472 23.8C40.112 23.8 40.68 23.552 41.176 23.056C41.688 22.56 42.112 21.952 42.448 21.232C42.688 20.736 42.888 20.08 43.048 19.264C43.208 18.464 43.328 17.568 43.408 16.576C43.504 15.568 43.552 14.528 43.552 13.456C43.552 12.368 43.504 11.296 43.408 10.24C43.312 9.184 43.152 8.192 42.928 7.264C42.72 6.336 42.456 5.536 42.136 4.864C41.816 4.192 41.424 3.712 40.96 3.424C40.832 3.344 40.712 3.304 40.6 3.304C40.472 3.304 40.344 3.344 40.216 3.424C40.104 3.504 40 3.608 39.904 3.736C39.696 4.024 39.544 4.424 39.448 4.936C39.352 5.432 39.304 5.968 39.304 6.544C39.304 7.216 39.36 7.896 39.472 8.584C39.584 9.256 39.736 9.856 39.928 10.384C40.136 10.896 40.368 11.256 40.624 11.464C40.768 11.592 40.904 11.656 41.032 11.656C41.144 11.656 41.232 11.632 41.296 11.584C41.36 11.52 41.424 11.488 41.488 11.488C41.6 11.488 41.616 11.536 41.536 11.632C41.456 11.712 41.336 11.792 41.176 11.872C41.016 11.952 40.84 11.984 40.648 11.968C40.216 11.92 39.856 11.68 39.568 11.248C39.28 10.816 39.064 10.272 38.92 9.616C38.776 8.944 38.704 8.256 38.704 7.552C38.704 6.8 38.776 6.08 38.92 5.392C39.08 4.704 39.312 4.144 39.616 3.712C39.936 3.28 40.32 3.064 40.768 3.064C40.992 3.064 41.208 3.112 41.416 3.208C42.024 3.464 42.52 3.96 42.904 4.696C43.304 5.416 43.608 6.28 43.816 7.288C44.04 8.28 44.192 9.32 44.272 10.408C44.368 11.496 44.416 12.544 44.416 13.552C44.416 14.368 44.392 15.112 44.344 15.784C44.312 16.456 44.272 17 44.224 17.416C44.128 18.296 43.936 19.136 43.648 19.936C43.36 20.752 43 21.472 42.568 22.096C42.136 22.736 41.64 23.24 41.08 23.608C40.52 23.976 39.928 24.16 39.304 24.16ZM44.5356 22.48C44.3756 22.48 44.2476 22.432 44.1516 22.336C44.0396 22.24 44.0236 22.128 44.1036 22C44.3276 21.664 44.5436 21.184 44.7516 20.56C44.9436 19.952 45.1116 19.312 45.2556 18.64C45.4156 17.968 45.5436 17.36 45.6396 16.816C45.7516 16.256 45.8316 15.864 45.8796 15.64C45.5916 15.368 45.4476 15.064 45.4476 14.728C45.4476 14.472 45.5036 14.256 45.6156 14.08C45.7436 13.904 45.8396 13.824 45.9036 13.84C45.9356 13.84 45.9756 13.856 46.0236 13.888C46.0876 13.904 46.1196 13.928 46.1196 13.96C46.2156 13.208 46.2956 12.464 46.3596 11.728C46.4236 10.976 46.4556 10.288 46.4556 9.664C46.4556 9.152 46.4316 8.696 46.3836 8.296C46.3356 7.896 46.2636 7.576 46.1676 7.336C46.0716 7.096 46.0236 6.912 46.0236 6.784C46.0236 6.608 46.0716 6.52 46.1676 6.52C46.2796 6.52 46.3676 6.592 46.4316 6.736C46.6076 7.088 46.7356 7.64 46.8156 8.392C46.9116 9.144 46.9596 10 46.9596 10.96C46.9596 11.616 46.9436 12.312 46.9116 13.048C46.8796 13.768 46.8236 14.488 46.7436 15.208C47.0316 14.952 47.3276 14.704 47.6316 14.464C47.9356 14.208 48.1996 13.944 48.4236 13.672V13.648C48.4236 13.616 48.4076 13.584 48.3756 13.552C48.3596 13.52 48.3516 13.472 48.3516 13.408C48.3516 13.296 48.4316 13.16 48.5916 13C48.7516 12.84 48.9596 12.616 49.2156 12.328C49.4876 12.024 49.7676 11.752 50.0556 11.512C50.3436 11.256 50.6076 11.136 50.8476 11.152C51.0396 11.152 51.1356 11.216 51.1356 11.344C51.1356 11.488 50.9996 11.704 50.7276 11.992C50.4556 12.28 50.1276 12.584 49.7436 12.904C49.3756 13.224 49.0316 13.52 48.7116 13.792C48.4076 14.048 48.2076 14.224 48.1116 14.32L47.1996 15.328L46.7196 15.832C46.9276 16.36 47.1676 16.88 47.4396 17.392C47.7116 17.904 48.0156 18.328 48.3516 18.664C48.7036 19 49.0636 19.168 49.4316 19.168C49.8156 19.168 50.2076 18.936 50.6076 18.472C50.8796 18.136 51.1116 17.76 51.3036 17.344C51.4956 16.928 51.6556 16.616 51.7836 16.408C51.8636 16.248 51.9436 16.144 52.0236 16.096C52.1036 16.032 52.1676 16 52.2156 16C52.3276 16 52.3676 16.08 52.3356 16.24C52.2716 16.448 52.1596 16.712 51.9996 17.032C51.8396 17.352 51.6796 17.656 51.5196 17.944C51.3756 18.216 51.2636 18.408 51.1836 18.52C50.8796 18.968 50.5756 19.296 50.2716 19.504C49.9676 19.712 49.6716 19.816 49.3836 19.816C49.0156 19.816 48.6556 19.68 48.3036 19.408C47.9516 19.136 47.6236 18.784 47.3196 18.352C47.0316 17.92 46.7676 17.464 46.5276 16.984C46.3516 18.2 46.1356 19.288 45.8796 20.248C45.6236 21.224 45.3436 21.896 45.0396 22.264C44.8956 22.408 44.7276 22.48 44.5356 22.48ZM58.1269 20.128C57.7429 20.128 57.4549 19.96 57.2629 19.624C57.0709 19.304 56.9749 18.896 56.9749 18.4C56.9749 18.048 57.0469 17.608 57.1909 17.08C57.3349 16.552 57.5349 16 57.7909 15.424C58.0469 14.848 58.3349 14.312 58.6549 13.816C58.9749 13.304 59.3029 12.896 59.6389 12.592C59.9909 12.272 60.3349 12.112 60.6709 12.112C60.9429 12.112 61.1349 12.216 61.2469 12.424C61.3749 12.616 61.4389 12.824 61.4389 13.048C61.4389 13.24 61.3989 13.416 61.3189 13.576C61.2549 13.72 61.1589 13.792 61.0309 13.792C60.9029 13.792 60.8069 13.736 60.7429 13.624C60.6949 13.496 60.6469 13.368 60.5989 13.24C60.5669 13.112 60.4789 13.048 60.3349 13.048C60.0469 13.048 59.7589 13.232 59.4709 13.6C59.1829 13.968 58.9189 14.432 58.6789 14.992C58.4389 15.552 58.2469 16.136 58.1029 16.744C57.9589 17.336 57.8869 17.864 57.8869 18.328C57.8869 18.664 57.9269 18.928 58.0069 19.12C58.1029 19.328 58.2549 19.432 58.4629 19.432C58.7349 19.432 59.0069 19.264 59.2789 18.928C59.5669 18.576 59.8469 18.128 60.1189 17.584C60.3909 17.024 60.6389 16.44 60.8629 15.832C61.1029 15.224 61.3029 14.656 61.4629 14.128C61.6389 13.584 61.7749 13.152 61.8709 12.832C61.9989 11.712 62.1509 10.584 62.3269 9.448C62.5189 8.312 62.7989 7.208 63.1669 6.136C63.2149 5.96 63.2869 5.808 63.3829 5.68C63.4949 5.552 63.6069 5.488 63.7189 5.488C63.8469 5.488 63.9509 5.576 64.0309 5.752C64.1269 5.928 64.1749 6.128 64.1749 6.352C64.1749 6.528 64.1429 6.712 64.0789 6.904C64.0149 7.096 63.9349 7.352 63.8389 7.672C63.7269 8.056 63.5829 8.568 63.4069 9.208C63.2469 9.832 63.0789 10.544 62.9029 11.344C62.7269 12.128 62.5749 12.968 62.4469 13.864C62.3349 14.744 62.2789 15.624 62.2789 16.504C62.2789 17.176 62.3269 17.648 62.4229 17.92C62.5189 18.192 62.6469 18.328 62.8069 18.328C62.9829 18.328 63.1749 18.216 63.3829 17.992C63.6069 17.768 63.8229 17.496 64.0309 17.176C64.2549 16.856 64.4549 16.536 64.6309 16.216C64.8069 15.88 64.9429 15.616 65.0389 15.424C65.2149 15.072 65.3509 14.896 65.4469 14.896C65.5109 14.896 65.5429 14.968 65.5429 15.112C65.5429 15.224 65.5189 15.344 65.4709 15.472C65.3749 15.68 65.3109 15.84 65.2789 15.952C65.2469 16.048 65.2069 16.144 65.1589 16.24C65.1269 16.336 65.0469 16.488 64.9189 16.696C64.8069 16.888 64.6309 17.152 64.3909 17.488C64.1509 17.808 63.8789 18.104 63.5749 18.376C63.2709 18.632 62.9669 18.76 62.6629 18.76C62.3589 18.76 62.1269 18.632 61.9669 18.376C61.8229 18.12 61.7269 17.792 61.6789 17.392C61.6469 16.976 61.6309 16.552 61.6309 16.12C61.6309 15.592 61.6549 15.032 61.7029 14.44C61.5909 14.824 61.4389 15.28 61.2469 15.808C61.0549 16.32 60.8389 16.84 60.5989 17.368C60.3589 17.896 60.1029 18.376 59.8309 18.808C59.6069 19.16 59.3589 19.464 59.0869 19.72C58.8149 19.992 58.4949 20.128 58.1269 20.128ZM66.6663 19.312C66.0903 19.312 65.5863 18.976 65.1543 18.304C64.7383 17.616 64.5303 16.536 64.5303 15.064C64.5303 14.104 64.6503 13.336 64.8903 12.76C65.1303 12.168 65.4263 11.736 65.7783 11.464C66.1303 11.192 66.4663 11.056 66.7863 11.056C67.1063 11.056 67.3783 11.168 67.6023 11.392C67.8263 11.6 67.9383 11.904 67.9383 12.304C67.9383 12.688 67.8263 13.096 67.6023 13.528C67.3783 13.944 67.1063 14.328 66.7863 14.68C66.4823 15.016 66.1783 15.24 65.8743 15.352C65.8103 15.384 65.7303 15.4 65.6343 15.4C65.5703 15.4 65.5383 15.376 65.5383 15.328C65.5383 15.2 65.6663 15.056 65.9223 14.896C66.2423 14.672 66.5463 14.336 66.8343 13.888C67.1223 13.424 67.2663 13.016 67.2663 12.664C67.2663 12.456 67.2183 12.296 67.1223 12.184C67.0263 12.056 66.9143 11.992 66.7863 11.992C66.5463 11.992 66.2823 12.184 65.9943 12.568C65.7223 12.936 65.5223 13.576 65.3943 14.488C65.3623 14.744 65.3303 14.992 65.2983 15.232C65.2823 15.456 65.2743 15.68 65.2743 15.904C65.2743 16.8 65.4103 17.504 65.6823 18.016C65.9543 18.512 66.3143 18.76 66.7623 18.76C67.1463 18.76 67.5783 18.536 68.0583 18.088C68.5383 17.624 69.0103 16.904 69.4743 15.928C69.5863 15.672 69.7143 15.544 69.8583 15.544C69.9543 15.544 70.0023 15.608 70.0023 15.736C70.0023 15.848 69.9703 15.968 69.9062 16.096C69.4903 17.12 68.9863 17.912 68.3943 18.472C67.8023 19.032 67.2263 19.312 66.6663 19.312ZM71.3761 20.608C71.2801 20.608 71.1841 20.552 71.0881 20.44C71.0081 20.328 70.9521 20.152 70.9201 19.912C70.9041 19.848 70.8961 19.752 70.8961 19.624C70.8961 19.512 70.8961 19.376 70.8961 19.216C70.8961 18.896 70.8961 18.576 70.8961 18.256C70.9121 17.92 70.9201 17.696 70.9201 17.584C70.9201 16.912 70.8881 16.232 70.8241 15.544C70.7601 14.856 70.6321 14.28 70.4401 13.816C70.2481 13.352 69.9441 13.12 69.5281 13.12C69.2721 13.12 69.0321 13.216 68.8081 13.408C68.6001 13.584 68.4241 13.768 68.2801 13.96C68.1201 14.152 68.0081 14.248 67.9441 14.248C67.8801 14.248 67.8481 14.216 67.8481 14.152C67.8481 14.072 67.9201 13.944 68.0641 13.768C68.2081 13.576 68.3121 13.448 68.3761 13.384C68.6161 13.144 68.8801 12.928 69.1681 12.736C69.4721 12.544 69.7521 12.448 70.0081 12.448C70.4081 12.448 70.7201 12.672 70.9441 13.12C71.1681 13.552 71.3281 14.104 71.4241 14.776C71.5201 15.432 71.5681 16.096 71.5681 16.768C71.5681 17.104 71.5601 17.432 71.5441 17.752C71.5281 18.056 71.5041 18.336 71.4721 18.592C71.6161 18.192 71.8001 17.72 72.0241 17.176C72.2481 16.616 72.5041 16.048 72.7921 15.472C73.0961 14.88 73.4161 14.328 73.7521 13.816C74.0881 13.304 74.4481 12.88 74.8321 12.544C75.0561 12.352 75.2241 12.256 75.3361 12.256C75.4321 12.256 75.4801 12.304 75.4801 12.4C75.4801 12.56 75.3441 12.76 75.0721 13C74.5121 13.496 74.0401 14.064 73.6561 14.704C73.2721 15.344 72.9601 16 72.7201 16.672C72.4961 17.344 72.3281 17.976 72.2161 18.568C72.1041 19.16 72.0321 19.648 72.0001 20.032C71.9841 20.144 71.9121 20.264 71.7841 20.392C71.6561 20.536 71.5201 20.608 71.3761 20.608ZM76.8381 19.312C76.2621 19.312 75.7581 18.976 75.3261 18.304C74.9101 17.616 74.7021 16.536 74.7021 15.064C74.7021 14.104 74.8221 13.336 75.0621 12.76C75.3021 12.168 75.5981 11.736 75.9501 11.464C76.3021 11.192 76.6381 11.056 76.9581 11.056C77.2781 11.056 77.5501 11.168 77.7741 11.392C77.9981 11.6 78.1101 11.904 78.1101 12.304C78.1101 12.688 77.9981 13.096 77.7741 13.528C77.5501 13.944 77.2781 14.328 76.9581 14.68C76.6541 15.016 76.3501 15.24 76.0461 15.352C75.9821 15.384 75.9021 15.4 75.8061 15.4C75.7421 15.4 75.7101 15.376 75.7101 15.328C75.7101 15.2 75.8381 15.056 76.0941 14.896C76.4141 14.672 76.7181 14.336 77.0061 13.888C77.2941 13.424 77.4381 13.016 77.4381 12.664C77.4381 12.456 77.3901 12.296 77.2941 12.184C77.1981 12.056 77.0861 11.992 76.9581 11.992C76.7181 11.992 76.4541 12.184 76.1661 12.568C75.8941 12.936 75.6941 13.576 75.5661 14.488C75.5341 14.744 75.5021 14.992 75.4701 15.232C75.4541 15.456 75.4461 15.68 75.4461 15.904C75.4461 16.8 75.5821 17.504 75.8541 18.016C76.1261 18.512 76.4861 18.76 76.9341 18.76C77.3181 18.76 77.7501 18.536 78.2301 18.088C78.7101 17.624 79.1821 16.904 79.6461 15.928C79.7581 15.672 79.8861 15.544 80.0301 15.544C80.1261 15.544 80.1741 15.608 80.1741 15.736C80.1741 15.848 80.1421 15.968 80.0781 16.096C79.6621 17.12 79.1581 17.912 78.5661 18.472C77.9741 19.032 77.3981 19.312 76.8381 19.312ZM83.1319 22.816C82.9239 22.816 82.7239 22.736 82.5319 22.576C82.3559 22.416 82.2039 22.256 82.0759 22.096C81.5639 21.504 81.1319 20.72 80.7799 19.744C80.4439 18.768 80.1879 17.696 80.0119 16.528C79.8359 15.344 79.7479 14.144 79.7479 12.928C79.7479 11.792 79.8199 10.688 79.9639 9.616C80.1239 8.544 80.3639 7.568 80.6839 6.688C81.0039 5.808 81.4039 5.104 81.8839 4.576C82.5079 3.872 83.1079 3.52 83.6839 3.52C84.0359 3.52 84.3159 3.68 84.5239 4C84.7479 4.304 84.8599 4.792 84.8599 5.464C84.8599 6.104 84.7319 6.92 84.4759 7.912C84.2359 8.888 83.8199 10.056 83.2279 11.416C83.0199 11.864 82.7959 12.312 82.5559 12.76C82.3319 13.208 82.0919 13.68 81.8359 14.176C81.7399 14.368 81.6599 14.464 81.5959 14.464C81.5639 14.464 81.5479 14.432 81.5479 14.368C81.5479 14.24 81.6039 14.072 81.7159 13.864C83.1719 11.128 83.8999 8.408 83.8999 5.704C83.8999 4.632 83.6759 4.096 83.2279 4.096C82.9079 4.096 82.5319 4.408 82.0999 5.032C81.5079 5.912 81.0999 6.96 80.8759 8.176C80.6519 9.376 80.5399 10.592 80.5399 11.824C80.5399 12.752 80.5799 13.656 80.6599 14.536C80.7399 15.4 80.8359 16.184 80.9479 16.888C80.9959 17.192 81.0679 17.6 81.1639 18.112C81.2599 18.624 81.3879 19.16 81.5479 19.72C81.7079 20.296 81.8839 20.816 82.0759 21.28C82.2839 21.76 82.5079 22.104 82.7479 22.312C82.8119 22.36 82.8759 22.408 82.9399 22.456C83.0199 22.52 83.1079 22.56 83.2039 22.576C83.3479 22.576 83.4199 22.616 83.4199 22.696C83.4199 22.776 83.3239 22.816 83.1319 22.816ZM85.8672 19.84C85.3392 19.84 84.9072 19.68 84.5712 19.36C84.2512 19.04 84.0112 18.632 83.8512 18.136C83.6912 17.624 83.6112 17.088 83.6112 16.528C83.6112 16.192 83.6432 15.872 83.7072 15.568C83.7712 15.264 83.8352 15.016 83.8992 14.824C83.8832 14.712 83.8672 14.6 83.8512 14.488C83.8512 14.36 83.8512 14.232 83.8512 14.104C83.8512 13.64 83.8992 13.136 83.9952 12.592C84.0912 12.048 84.2432 11.528 84.4512 11.032C84.6752 10.536 84.9472 10.136 85.2672 9.832C85.6032 9.512 86.0112 9.352 86.4912 9.352C86.9072 9.352 87.3152 9.528 87.7152 9.88C88.1152 10.216 88.4672 10.712 88.7712 11.368C88.9472 11.736 89.0672 12.136 89.1312 12.568C89.2112 12.984 89.2512 13.408 89.2512 13.84C89.2512 14.432 89.1872 15.024 89.0592 15.616C88.9472 16.192 88.7792 16.736 88.5552 17.248C88.3952 17.616 88.1792 18.008 87.9072 18.424C87.6512 18.824 87.3552 19.16 87.0192 19.432C86.6832 19.704 86.2992 19.84 85.8672 19.84ZM85.9872 19.312C86.5312 19.312 87.0352 18.936 87.4992 18.184C87.8352 17.656 88.0752 17.056 88.2192 16.384C88.3632 15.696 88.4352 15.008 88.4352 14.32C88.4352 13.808 88.4032 13.312 88.3392 12.832C88.2752 12.352 88.1792 11.888 88.0512 11.44C87.9392 11.04 87.7472 10.688 87.4752 10.384C87.2192 10.064 86.8512 9.928 86.3712 9.976C85.9872 10.008 85.6512 10.2 85.3632 10.552C85.0752 10.904 84.8512 11.304 84.6912 11.752C84.5472 12.184 84.4752 12.56 84.4752 12.88C84.4752 13.056 84.4992 13.192 84.5472 13.288C84.5952 13.16 84.7152 12.952 84.9072 12.664C85.0992 12.36 85.3152 12.088 85.5552 11.848C85.7952 11.592 86.0192 11.464 86.2272 11.464C86.4032 11.464 86.4912 11.536 86.4912 11.68C86.2832 11.696 86.0752 11.824 85.8672 12.064C85.6752 12.288 85.4912 12.56 85.3152 12.88C85.1552 13.2 85.0192 13.52 84.9072 13.84C84.8112 14.144 84.7392 14.384 84.6912 14.56C84.6752 14.624 84.6512 14.704 84.6192 14.8C84.5872 14.896 84.5712 14.992 84.5712 15.088C84.5712 15.2 84.6352 15.384 84.7632 15.64C84.8912 15.88 85.0992 16.104 85.3872 16.312C85.6752 16.52 86.0672 16.624 86.5632 16.624C86.7072 16.624 86.8592 16.608 87.0192 16.576C87.1792 16.544 87.3312 16.512 87.4752 16.48L87.6432 16.432C87.6752 16.432 87.6912 16.448 87.6912 16.48C87.6912 16.528 87.6352 16.592 87.5232 16.672C87.4272 16.736 87.3392 16.784 87.2592 16.816C87.0352 16.928 86.7872 16.984 86.5152 16.984C86.1152 16.984 85.7312 16.864 85.3632 16.624C85.0112 16.368 84.6992 16.08 84.4272 15.76C84.4112 15.888 84.4032 16.016 84.4032 16.144C84.4032 16.256 84.4032 16.368 84.4032 16.48C84.4032 17.408 84.5632 18.112 84.8832 18.592C85.2032 19.072 85.5712 19.312 85.9872 19.312ZM90.0783 26.824C89.8383 26.824 89.6463 26.664 89.5023 26.344C89.3582 26.04 89.2542 25.672 89.1902 25.24C89.1102 24.808 89.0702 24.408 89.0702 24.04C89.0702 23.864 89.0782 23.608 89.0942 23.272C89.1102 22.936 89.1342 22.576 89.1662 22.192C89.1982 21.808 89.2302 21.448 89.2622 21.112C89.2942 20.776 89.3182 20.52 89.3342 20.344C89.4783 19.256 89.6943 18.208 89.9823 17.2C90.2703 16.176 90.5823 15.176 90.9183 14.2C90.9343 14.168 90.9503 14.12 90.9663 14.056C90.9983 13.992 91.0223 13.96 91.0383 13.96V13.888C90.8783 13.952 90.6703 14.104 90.4143 14.344C90.1743 14.584 89.9983 14.768 89.8863 14.896C89.7743 15.008 89.6703 15.128 89.5743 15.256C89.4783 15.368 89.3662 15.424 89.2382 15.424C89.1102 15.424 89.0462 15.352 89.0462 15.208C89.0462 15.032 89.1422 14.856 89.3342 14.68C89.5103 14.488 89.7103 14.312 89.9343 14.152C90.1583 13.976 90.3983 13.816 90.6543 13.672C90.9263 13.528 91.1183 13.424 91.2303 13.36C91.2783 13.328 91.3103 13.288 91.3263 13.24C91.3583 13.192 91.3823 13.144 91.3983 13.096C91.5103 12.92 91.6223 12.752 91.7343 12.592C91.8623 12.432 92.0303 12.32 92.2383 12.256C92.3823 12.272 92.5423 12.304 92.7183 12.352C92.8943 12.4 92.9983 12.512 93.0303 12.688C93.0303 12.752 93.0463 12.784 93.0783 12.784V12.808C93.1583 12.808 93.2543 12.8 93.3663 12.784C93.4943 12.752 93.6383 12.736 93.7983 12.736C94.4223 12.736 94.9263 12.896 95.3103 13.216C95.6943 13.536 95.8863 13.96 95.8863 14.488C95.8863 14.984 95.7423 15.52 95.4543 16.096C95.1663 16.656 94.8543 17.112 94.5183 17.464C93.9903 17.992 93.4303 18.456 92.8383 18.856C92.2623 19.24 91.7663 19.432 91.3503 19.432C91.0943 19.432 90.9183 19.36 90.8223 19.216C90.7423 19.088 90.7023 18.928 90.7023 18.736C90.7023 18.464 90.8223 18.192 91.0623 17.92C91.3023 17.648 91.5423 17.416 91.7823 17.224C92.0543 17 92.3343 16.792 92.6223 16.6C92.9263 16.408 93.1823 16.248 93.3903 16.12C93.5023 16.04 93.6063 15.968 93.7023 15.904C93.8143 15.84 93.9103 15.808 93.9903 15.808C94.0383 15.808 94.0623 15.832 94.0623 15.88C94.0623 15.912 93.9663 15.992 93.7743 16.12C93.5983 16.248 93.4463 16.36 93.3183 16.456C93.2223 16.536 93.0543 16.68 92.8143 16.888C92.5743 17.08 92.3183 17.304 92.0463 17.56C91.7903 17.8 91.5663 18.048 91.3743 18.304C91.1823 18.56 91.0863 18.784 91.0863 18.976C91.3423 18.976 91.6223 18.872 91.9263 18.664C92.2463 18.44 92.5583 18.184 92.8623 17.896C93.1823 17.608 93.4543 17.368 93.6783 17.176C93.8863 16.984 94.1343 16.72 94.4223 16.384C94.7103 16.048 94.9663 15.688 95.1903 15.304C95.4143 14.92 95.5263 14.568 95.5263 14.248C95.5263 13.832 95.3663 13.528 95.0463 13.336C94.7423 13.128 94.3743 13.024 93.9423 13.024C93.7983 13.024 93.6143 13.04 93.3903 13.072C93.1663 13.104 93.0303 13.136 92.9823 13.168C92.6303 13.712 92.2943 14.264 91.9743 14.824C91.6543 15.384 91.3583 15.96 91.0863 16.552C90.6383 17.512 90.2783 18.488 90.0063 19.48C89.7503 20.472 89.5823 21.544 89.5023 22.696C89.4863 22.968 89.4623 23.256 89.4303 23.56C89.4143 23.864 89.4143 24.168 89.4303 24.472C89.4463 24.632 89.4783 24.888 89.5263 25.24C89.5743 25.592 89.6543 25.912 89.7663 26.2C89.8783 26.488 90.0303 26.632 90.2223 26.632C90.2383 26.632 90.2703 26.632 90.3183 26.632C90.3663 26.632 90.3903 26.64 90.3903 26.656V26.728C90.2783 26.792 90.1743 26.824 90.0783 26.824ZM98.2131 19.312C97.6371 19.312 97.1331 18.976 96.7011 18.304C96.2851 17.616 96.0771 16.536 96.0771 15.064C96.0771 14.104 96.1971 13.336 96.4371 12.76C96.6771 12.168 96.9731 11.736 97.3251 11.464C97.6771 11.192 98.0131 11.056 98.3331 11.056C98.6531 11.056 98.9251 11.168 99.1491 11.392C99.3731 11.6 99.4851 11.904 99.4851 12.304C99.4851 12.688 99.3731 13.096 99.1491 13.528C98.9251 13.944 98.6531 14.328 98.3331 14.68C98.0291 15.016 97.7251 15.24 97.4211 15.352C97.3571 15.384 97.2771 15.4 97.1811 15.4C97.1171 15.4 97.0851 15.376 97.0851 15.328C97.0851 15.2 97.2131 15.056 97.4691 14.896C97.7891 14.672 98.0931 14.336 98.3811 13.888C98.6691 13.424 98.8131 13.016 98.8131 12.664C98.8131 12.456 98.7651 12.296 98.6691 12.184C98.5731 12.056 98.4611 11.992 98.3331 11.992C98.0931 11.992 97.8291 12.184 97.5411 12.568C97.2691 12.936 97.0691 13.576 96.9411 14.488C96.9091 14.744 96.8771 14.992 96.8451 15.232C96.8291 15.456 96.8211 15.68 96.8211 15.904C96.8211 16.8 96.9571 17.504 97.2291 18.016C97.5011 18.512 97.8611 18.76 98.3091 18.76C98.6931 18.76 99.1251 18.536 99.6051 18.088C100.085 17.624 100.557 16.904 101.021 15.928C101.133 15.672 101.261 15.544 101.405 15.544C101.501 15.544 101.549 15.608 101.549 15.736C101.549 15.848 101.517 15.968 101.453 16.096C101.037 17.12 100.533 17.912 99.9411 18.472C99.3491 19.032 98.7731 19.312 98.2131 19.312ZM104.027 20.2C103.515 20.2 103.123 19.96 102.851 19.48C102.579 19.016 102.443 18.504 102.443 17.944C102.443 17.416 102.531 16.864 102.707 16.288C102.883 15.712 103.099 15.144 103.355 14.584C103.627 14.024 103.907 13.512 104.195 13.048C103.907 13.16 103.635 13.216 103.379 13.216C103.251 13.216 103.139 13.2 103.043 13.168C102.947 13.136 102.867 13.112 102.803 13.096C102.723 13.288 102.579 13.608 102.371 14.056C102.179 14.504 101.971 14.976 101.747 15.472C101.539 15.952 101.355 16.36 101.195 16.696C100.939 17.24 100.715 17.512 100.523 17.512C100.427 17.512 100.379 17.448 100.379 17.32C100.379 17.224 100.419 17.096 100.499 16.936C100.867 16.248 101.211 15.568 101.531 14.896C101.867 14.224 102.171 13.576 102.443 12.952C102.411 12.872 102.379 12.768 102.347 12.64C102.315 12.496 102.299 12.344 102.299 12.184C102.299 12.008 102.315 11.824 102.347 11.632C102.395 11.424 102.459 11.224 102.539 11.032C102.587 10.92 102.675 10.76 102.803 10.552C102.931 10.328 103.075 10.128 103.235 9.952C103.395 9.76 103.547 9.664 103.691 9.664C103.963 9.664 104.099 9.808 104.099 10.096C104.099 10.368 104.011 10.68 103.835 11.032C103.675 11.384 103.507 11.712 103.331 12.016C103.155 12.304 103.067 12.52 103.067 12.664C103.067 12.792 103.131 12.856 103.259 12.856C103.435 12.856 103.651 12.768 103.907 12.592C104.179 12.4 104.395 12.224 104.555 12.064C104.635 11.984 104.763 11.864 104.939 11.704C105.115 11.528 105.283 11.44 105.443 11.44C105.603 11.44 105.707 11.488 105.755 11.584C105.819 11.68 105.851 11.792 105.851 11.92C105.851 12.064 105.787 12.248 105.659 12.472C105.531 12.68 105.379 12.888 105.203 13.096C105.043 13.304 104.907 13.48 104.795 13.624C104.571 13.96 104.315 14.384 104.027 14.896C103.739 15.408 103.491 15.96 103.283 16.552C103.075 17.128 102.971 17.68 102.971 18.208C102.971 18.56 103.059 18.928 103.235 19.312C103.411 19.696 103.651 19.888 103.955 19.888C104.227 19.888 104.515 19.744 104.819 19.456C105.139 19.168 105.435 18.824 105.707 18.424C105.995 18.024 106.243 17.64 106.451 17.272C106.675 16.904 106.827 16.648 106.907 16.504C106.939 16.424 106.995 16.328 107.075 16.216C107.155 16.088 107.251 16.024 107.363 16.024C107.459 16.024 107.507 16.072 107.507 16.168C107.507 16.248 107.483 16.344 107.435 16.456C107.403 16.552 107.371 16.64 107.339 16.72C107.195 17.056 107.019 17.408 106.811 17.776C106.603 18.144 106.459 18.392 106.379 18.52C106.155 18.888 105.819 19.256 105.371 19.624C104.939 20.008 104.491 20.2 104.027 20.2ZM109.111 20.032C108.903 20.032 108.751 19.96 108.655 19.816C108.575 19.688 108.535 19.56 108.535 19.432C108.535 19.176 108.647 18.912 108.871 18.64C108.951 18.544 109.063 18.416 109.207 18.256C109.351 18.08 109.455 17.944 109.519 17.848C109.311 17.56 109.031 17.296 108.679 17.056C108.327 16.816 107.983 16.512 107.647 16.144C107.343 15.808 107.087 15.4 106.879 14.92C106.671 14.424 106.567 13.952 106.567 13.504C106.567 12.976 106.687 12.472 106.927 11.992C107.167 11.512 107.463 11.096 107.815 10.744C108.199 10.36 108.623 10.056 109.087 9.832C109.551 9.592 110.031 9.472 110.527 9.472C110.863 9.472 111.191 9.552 111.511 9.712C111.831 9.872 111.991 10.136 111.991 10.504C111.991 10.936 111.895 11.152 111.703 11.152C111.623 11.152 111.567 11.072 111.535 10.912C111.519 10.832 111.511 10.752 111.511 10.672C111.511 10.576 111.511 10.512 111.511 10.48C111.511 10.32 111.439 10.184 111.295 10.072C111.151 9.944 110.991 9.88 110.815 9.88C110.447 9.88 110.039 10.024 109.591 10.312C109.143 10.6 108.767 10.936 108.463 11.32C108.159 11.72 107.911 12.176 107.719 12.688C107.527 13.184 107.431 13.664 107.431 14.128C107.431 14.704 107.559 15.2 107.815 15.616C108.071 16.032 108.375 16.4 108.727 16.72C109.095 17.04 109.423 17.352 109.711 17.656C109.855 17.48 110.007 17.312 110.167 17.152C110.343 16.992 110.503 16.864 110.647 16.768C110.775 16.688 110.863 16.648 110.911 16.648C110.959 16.648 110.983 16.672 110.983 16.72C110.983 16.8 110.911 16.896 110.767 17.008C110.735 17.04 110.639 17.136 110.479 17.296C110.335 17.44 110.159 17.624 109.951 17.848C110.079 17.992 110.183 18.144 110.263 18.304C110.343 18.464 110.383 18.64 110.383 18.832C110.383 19.088 110.239 19.352 109.951 19.624C109.663 19.896 109.383 20.032 109.111 20.032ZM109.375 19.384C109.487 19.384 109.591 19.28 109.687 19.072C109.799 18.88 109.855 18.688 109.855 18.496C109.855 18.4 109.839 18.312 109.807 18.232C109.775 18.152 109.751 18.104 109.735 18.088C109.607 18.248 109.487 18.424 109.375 18.616C109.279 18.792 109.231 18.952 109.231 19.096C109.231 19.288 109.279 19.384 109.375 19.384Z" fill="black"/>
</g>
<defs>
<filter id="filter0_d_0_1" x="-79" y="-63" width="1520" height="159" filterUnits="userSpaceOnUse" color-interpolation-filters="sRGB">
<feFlood flood-opacity="0" result="BackgroundImageFix"/>
<feColorMatrix in="SourceAlpha" type="matrix" values="0 0 0 0 0 0 0 0 0 0 0 0 0 0 0 0 0 0 127 0" result="hardAlpha"/>
<feOffset dy="4"/>
<feGaussianBlur stdDeviation="20"/>
<feComposite in2="hardAlpha" operator="out"/>
<feColorMatrix type="matrix" values="0 0 0 0 0 0 0 0 0 0 0 0 0 0 0 0 0 0 0.1 0"/>
<feBlend mode="normal" in2="BackgroundImageFix" result="effect1_dropShadow_0_1"/>
<feBlend mode="normal" in="SourceGraphic" in2="effect1_dropShadow_0_1" result="shape"/>
</filter>
<linearGradient id="paint0_linear_0_1" x1="28.4051" y1="7.67916" x2="2.31694" y2="7.67916" gradientUnits="userSpaceOnUse">
<stop stop-color="#161490"/>
<stop offset="0.510417" stop-color="#7476ED"/>
<stop offset="1" stop-color="#E56F8C"/>
</linearGradient>
<clipPath id="clip0_0_1">
<rect width="1440" height="11467" fill="white" transform="translate(-39 -27)"/>
</clipPath>
<clipPath id="clip1_0_1">
<rect width="132.391" height="24.5027" fill="white" transform="translate(0.347839 0.409668)"/>
</clipPath>
</defs>
</svg>
